<svg xmlns="http://www.w3.org/2000/svg" xmlns:xlink="http://www.w3.org/1999/xlink" viewBox="0 0 340.6 343.59"><defs><style>.cls-1{fill:url(#linear-gradient);}.cls-2{fill:url(#linear-gradient-2);}.cls-3{fill:url(#linear-gradient-3);}.cls-4{fill:url(#linear-gradient-4);}.cls-5{fill:#47afde;}</style><linearGradient id="linear-gradient" y1="68.88" x2="294.11" y2="68.88" gradientUnits="userSpaceOnUse"><stop offset="0" stop-color="#87def3"></stop><stop offset="1" stop-color="#39a3dc"></stop></linearGradient><linearGradient id="linear-gradient-2" x1="190.43" y1="309.89" x2="261.98" y2="309.89" xlink:href="#linear-gradient"></linearGradient><linearGradient id="linear-gradient-3" x1="21.09" y1="185.99" x2="273.62" y2="185.99" xlink:href="#linear-gradient"></linearGradient><linearGradient id="linear-gradient-4" x1="142.05" y1="229.86" x2="184.12" y2="229.86" xlink:href="#linear-gradient"></linearGradient></defs><g id="Layer_2" data-name="Layer 2"><g id="Layer_1-2" data-name="Layer 1"><polygon class="cls-1" points="241.37 62.79 241.37 9.28 203.14 9.28 203.14 37.22 147.36 0 0 99.42 0 137.76 147.36 38.39 294.12 137.76 294.12 99.42 241.37 62.79"></polygon><path class="cls-2" d="M262,319.64H190.43a85.1,85.1,0,0,0,52.29-19.49,28.61,28.61,0,0,0,10.73,13.94l5.39,3.69A25.41,25.41,0,0,0,262,319.64Z"></path><path class="cls-3" d="M273.62,136.24v96.48a85.23,85.23,0,0,0-38.16-69.31q-1-.65-2-1.26-2-1.25-4.07-2.37c-.69-.38-1.38-.74-2.09-1.1s-1.3-.65-2-1a2.3,2.3,0,0,0-.32-.15c-.49-.24-1-.47-1.49-.69-.65-.3-1.3-.58-2-.85q-.74-.32-1.47-.6c-1-.4-2-.77-3-1.12l-1.34-.46c-1.07-.36-2.14-.7-3.23-1l-1.28-.37c-.6-.17-1.21-.33-1.82-.48-.78-.19-1.57-.38-2.36-.55s-1.59-.34-2.39-.5-1.78-.33-2.68-.47c-.71-.12-1.44-.22-2.16-.32a84.87,84.87,0,0,0-32,1.79,85.23,85.23,0,0,0-62,103.21c.2.78.4,1.56.62,2.33v0c.22.78.44,1.55.68,2.31s.57,1.78.88,2.66c.16.5.34,1,.53,1.5.25.7.51,1.39.79,2.08.19.48.38.95.58,1.42q1.55,3.75,3.44,7.29l.72,1.32.78,1.38c.26.46.53.91.81,1.36s.55.9.83,1.34c.55.89,1.13,1.76,1.73,2.63q.44.66.9,1.29c.3.43.61.85.92,1.27s.72,1,1.1,1.46.76,1,1.15,1.45l.29.36h0a84.69,84.69,0,0,0,54.47,30.29,83.62,83.62,0,0,0,9.21.73H21.09V136.24L147.36,52.35Z"></path><path class="cls-4" d="M177.73,189.87a49.34,49.34,0,0,1,6.39-1.09,55.34,55.34,0,0,0-33.61,65c.09.36.18.71.28,1.06l0,.12a3.37,3.37,0,0,0,.1.34c0,.13.07.26.11.39.15.53.31,1.06.48,1.58h0c.14.45.29.89.45,1.33s.22.63.34.94.12.33.19.5.11.31.18.46l.06.15c.14.36.29.73.45,1.09s.31.72.47,1.08a0,0,0,0,0,0,0l.48,1c.17.36.34.71.52,1.06l.1.2c.14.28.29.56.44.84s.35.68.54,1c.76,1.37,1.57,2.69,2.42,4-1.17-1-2.3-2.11-3.36-3.25h0l-.21-.23-.25-.27a2.91,2.91,0,0,1-.24-.27c-.23-.24-.44-.49-.65-.74l-.49-.57q-.27-.31-.51-.63c-.14-.16-.27-.33-.4-.49a1.47,1.47,0,0,1-.1-.13l-.78-1c-.2-.27-.4-.55-.59-.83l-.51-.74-.08-.12q-.45-.66-.87-1.35l-.11-.19c-.22-.34-.42-.68-.62-1q-.15-.24-.27-.48c-.1-.17-.2-.34-.29-.52s-.27-.49-.4-.74a.8.8,0,0,1-.08-.16c-.1-.18-.19-.37-.28-.56s-.34-.68-.51-1l-.06-.14c-.2-.42-.39-.85-.58-1.28s-.31-.74-.46-1.12c-.09-.22-.17-.44-.26-.67a4.68,4.68,0,0,1-.18-.48c-.12-.3-.23-.6-.33-.91a.08.08,0,0,1,0,0c-.09-.26-.18-.53-.26-.79a.65.65,0,0,1,0-.13c-.14-.43-.28-.87-.41-1.31a.07.07,0,0,1,0-.05c-.17-.58-.33-1.16-.48-1.75A47.08,47.08,0,0,1,177.73,189.87Z"></path><path class="cls-5" d="M334.11,316.36l-5.39-3.69a15,15,0,0,0-5.11-2.21,15,15,0,0,0-3.92-4l-9-6.19a15.23,15.23,0,0,0-5.11-2.24,15,15,0,0,0-3.94-3.95l-9-6.18a14.67,14.67,0,0,0-5.12-2.22,15,15,0,0,0-3.92-4L278.15,278a14.77,14.77,0,0,0-8.32-2.58,15.23,15.23,0,0,0-6.49,1.46l-12.28-8.4a71.24,71.24,0,0,0-21.42-92.28l-1.72-1.18-.11-.07q-.76-.51-1.56-1-1-.6-1.95-1.17c-.6-.35-1.21-.69-1.82-1s-1.25-.67-1.88-1l-1.73-.83-.32-.15c-.59-.28-1.19-.55-1.8-.8s-1.31-.55-2-.81c-1.3-.51-2.62-1-4-1.43l-.19-.06c-.64-.21-1.29-.41-1.94-.6s-1.38-.39-2.08-.57-1.2-.31-1.8-.44l-.65-.15c-.59-.14-1.19-.26-1.79-.38s-1.08-.21-1.63-.3l-.84-.14c-.62-.1-1.24-.2-1.87-.28a71.84,71.84,0,0,0-9.47-.63,71.32,71.32,0,0,0-69.17,88.53c.18.71.36,1.41.56,2.1s.32,1.12.5,1.68a1.21,1.21,0,0,0,0,.18c.07.24.15.47.22.7.16.49.32,1,.49,1.47,0,.13.09.27.14.41.2.56.41,1.13.62,1.69s.38,1,.58,1.47c.08.2.16.41.25.61.25.62.52,1.24.8,1.85s.43.95.66,1.42l.19.4c.17.37.36.74.55,1.11a1.09,1.09,0,0,0,.08.15c.18.36.36.72.55,1.08.42.79.86,1.58,1.31,2.35.22.38.44.76.67,1.14.36.6.73,1.19,1.12,1.78s.67,1,1,1.54h0c.36.52.72,1,1.09,1.54,1.25,1.73,2.59,3.41,4,5A71,71,0,0,0,179,305.17a71.88,71.88,0,0,0,9.48.63,71.25,71.25,0,0,0,54.14-25l12.28,8.41a14.87,14.87,0,0,0,6.38,13.42l5.38,3.68a14.86,14.86,0,0,0,5.15,2.24,15.72,15.72,0,0,0,1.8,2.2,13.73,13.73,0,0,0,2.1,1.75l9,6.19a14.55,14.55,0,0,0,5.1,2.24,14.76,14.76,0,0,0,3.93,3.95l9,6.19a14.74,14.74,0,0,0,5.13,2.23,15,15,0,0,0,3.91,4l5.39,3.68a14.91,14.91,0,1,0,16.85-24.61Zm-93.43-58.1a56.36,56.36,0,0,1-93.46,15l-.87-1q-.67-.79-1.32-1.62c-.29-.36-.58-.72-.85-1.1l-.29-.38c-.08-.11-.17-.22-.25-.34-.36-.5-.72-1-1.07-1.52a.05.05,0,0,1,0,0c-.4-.58-.78-1.17-1.15-1.77-.17-.27-.34-.54-.5-.81a.41.41,0,0,1-.05-.09,1.64,1.64,0,0,1-.14-.22l-.4-.7-.54-1c-.17-.29-.33-.6-.48-.9l-.38-.73c-.19-.36-.37-.72-.54-1.09a.36.36,0,0,1,0-.09c-.07-.13-.12-.25-.18-.38-.22-.45-.42-.91-.62-1.37q-.15-.31-.27-.63c-.23-.53-.44-1.06-.65-1.59A56.41,56.41,0,0,1,168.74,183c.82-.32,1.64-.62,2.47-.89l.51-.17c.31-.11.62-.2.93-.3s.55-.17.83-.24.63-.19,1-.27l.16,0a3,3,0,0,1,.4-.11l.62-.16.62-.15.43-.1h.08a0,0,0,0,1,0,0h0l.32-.07.38-.08h0l.55-.11.7-.14,1.28-.23,1.29-.19c.84-.12,1.69-.22,2.54-.3H184c.84-.08,1.69-.14,2.54-.18h.06q1.27-.06,2.55-.06h.47c.73,0,1.45,0,2.17.06l.9,0,.6,0,.65,0,1.07.1,1.06.12.9.12.49.07,1.1.17c.73.12,1.46.26,2.18.41l1.07.23,1.08.26.87.22.21.06,1,.29.62.18h0l.34.1.05,0,.2.06,1.11.37c.6.2,1.2.42,1.79.64s1.35.52,2,.81l.08,0q1,.4,1.89.84h0c.62.29,1.24.59,1.85.9l.09,0c.65.34,1.28.68,1.91,1s1.07.62,1.6.94c.2.12.4.24.59.37.5.31,1,.63,1.48,1,.19.12.37.25.55.38s.37.25.55.39l.67.47h0a56.46,56.46,0,0,1,18.28,68.25Z"></path><path class="cls-5" d="M143.46,246.94c.15.59.31,1.17.48,1.75a.07.07,0,0,0,0,.05c.13.44.27.88.41,1.31a.65.65,0,0,0,0,.13c.08.26.17.53.26.79a.08.08,0,0,0,0,0c.1.31.21.61.33.91a4.68,4.68,0,0,0,.18.48c.09.23.17.45.26.67.15.38.3.75.46,1.12s.38.86.58,1.28l.06.14c.17.34.33.68.51,1s.18.38.28.56a.8.8,0,0,0,.08.16c.13.25.26.5.4.74s.19.35.29.52.17.32.27.48c.2.35.4.69.62,1l.11.19q.42.69.87,1.35l.08.12.51.74c.19.28.39.56.59.83l.78,1a1.47,1.47,0,0,0,.1.13c.13.16.26.33.4.49s.33.42.51.63l.49.57c.21.25.42.5.65.74a2.91,2.91,0,0,0,.24.27l.25.27.21.23h0l.94-.73c-.19-.33-.37-.67-.54-1s-.3-.56-.44-.84l-.1-.2c-.18-.35-.35-.7-.52-1.06l-.48-1a0,0,0,0,1,0,0c-.17-.36-.32-.72-.47-1.08s-.31-.73-.45-1.09a.47.47,0,0,1-.06-.15c-.07-.15-.12-.31-.18-.46s-.13-.33-.19-.5-.23-.62-.34-.94-.31-.88-.45-1.33h0c-.17-.52-.33-1.05-.48-1.58,0-.13-.08-.26-.11-.39a3.37,3.37,0,0,1-.1-.34l0-.12c-.1-.35-.19-.7-.28-1.06a55.34,55.34,0,0,1,33.61-65,49.34,49.34,0,0,0-6.39,1.09A47.08,47.08,0,0,0,143.46,246.94Z"></path></g></g></svg>

